<svg width="127" height="43" viewBox="0 0 127 43" fill="none" xmlns="http://www.w3.org/2000/svg">
<rect width="34" height="42.0287" rx="6" fill="white"/>
<path d="M27.2263 21.1315C26.3918 22.4869 24.9605 23.4076 23.3137 23.5106C23.4353 23.9052 23.5016 24.3227 23.5016 24.7573V28.8635C23.5016 29.7156 22.8274 30.4019 22.0039 30.4019H11.4984V23.3218C9.06132 22.6813 7.22105 20.4967 7.02211 17.8431C7.01105 17.9231 7 17.9975 7 18.0833V33.0841C7.05526 34.1364 7.87316 34.9771 8.89553 35.0285H9.00053H21.9984H22.1532C25.3971 34.9428 28 32.2148 28 28.8635V24.7573C28 23.4591 27.7182 22.2352 27.2263 21.1315Z" fill="#003594"/>
<path d="M21.9984 7.01144H7V14.875C7.01658 15.527 7.13816 16.156 7.33711 16.7394C7.35368 16.7851 7.37026 16.8309 7.38684 16.8766C8.06658 18.741 9.59737 20.1708 11.4984 20.674C11.9295 20.7884 12.3771 20.8627 12.8413 20.8742H12.9961H20.7992H23.2529C24.43 20.8056 25.4966 20.3252 26.32 19.5645C26.3476 19.5359 26.3808 19.5074 26.4084 19.4845C27.3258 18.6038 27.9226 17.3742 27.9889 16.0016V15.79L27.9945 15.7328V13.165C27.9945 9.76226 25.3087 7 21.9929 7L21.9984 7.01144ZM23.5016 15.7443C23.5016 16.0302 23.275 16.259 23.0042 16.259H13.0016C12.7142 16.259 12.4545 16.1732 12.2279 16.0302C12.1339 15.973 12.0455 15.9044 11.9682 15.8301C11.6863 15.5498 11.5039 15.1552 11.5039 14.7206V11.6381H22.0039C22.8329 11.6381 23.5016 12.3301 23.5016 13.1765V15.7443Z" fill="#FE6B00"/>
<path d="M41.2642 28.0143V13.4689H47.0881C48.1581 13.4689 49.0507 13.6275 49.7656 13.9447C50.4806 14.262 51.018 14.7023 51.3778 15.2658C51.7377 15.8245 51.9176 16.4684 51.9176 17.1976C51.9176 17.7658 51.804 18.2653 51.5767 18.6962C51.3494 19.1223 51.0369 19.4727 50.6392 19.7473C50.2462 20.0172 49.7964 20.2089 49.2898 20.3226V20.4646C49.8438 20.4883 50.3622 20.6446 50.8452 20.9334C51.3329 21.2222 51.7282 21.627 52.0312 22.1479C52.3343 22.664 52.4858 23.2795 52.4858 23.9945C52.4858 24.7662 52.294 25.4552 51.9105 26.0612C51.5317 26.6625 50.9706 27.1384 50.2273 27.4888C49.4839 27.8392 48.5677 28.0143 47.4787 28.0143H41.2642ZM44.3395 25.5001H46.8466C47.7036 25.5001 48.3286 25.3368 48.7216 25.0101C49.1146 24.6786 49.3111 24.2383 49.3111 23.6891C49.3111 23.2866 49.214 22.9315 49.0199 22.6237C48.8258 22.316 48.5488 22.0745 48.1889 21.8993C47.8338 21.7241 47.41 21.6365 46.9176 21.6365H44.3395V25.5001ZM44.3395 19.5555H46.6193C47.0407 19.5555 47.4148 19.4821 47.7415 19.3354C48.0729 19.1839 48.3333 18.9708 48.5227 18.6962C48.7169 18.4215 48.8139 18.0925 48.8139 17.7089C48.8139 17.1834 48.6269 16.7596 48.2528 16.4376C47.8835 16.1157 47.358 15.9547 46.6761 15.9547H44.3395V19.5555ZM61.4258 23.3695V17.1053H64.4513V28.0143H61.5465V26.0328H61.4329C61.1867 26.672 60.7771 27.1857 60.2042 27.574C59.636 27.9623 58.9424 28.1564 58.1232 28.1564C57.3941 28.1564 56.7525 27.9907 56.1985 27.6592C55.6445 27.3278 55.2113 26.8567 54.8988 26.2459C54.591 25.6351 54.4348 24.9035 54.43 24.0513V17.1053H57.4556V23.5115C57.4603 24.1554 57.6332 24.6644 57.9741 25.0385C58.315 25.4125 58.7719 25.5996 59.3448 25.5996C59.7094 25.5996 60.0503 25.5167 60.3675 25.351C60.6848 25.1805 60.9405 24.9296 61.1346 24.5981C61.3335 24.2667 61.4305 23.8571 61.4258 23.3695ZM68.7393 32.1053C68.3558 32.1053 67.996 32.0745 67.6598 32.0129C67.3284 31.9561 67.0537 31.8827 66.8359 31.7928L67.5178 29.5342C67.8729 29.6431 68.1925 29.7023 68.4766 29.7118C68.7654 29.7213 69.014 29.655 69.2223 29.5129C69.4354 29.3709 69.6082 29.1294 69.7408 28.7885L69.9183 28.3268L66.005 17.1053H69.1868L71.4453 25.1166H71.5589L73.8388 17.1053H77.0419L72.8018 29.1933C72.5982 29.7804 72.3213 30.2918 71.9709 30.7274C71.6252 31.1678 71.1873 31.5063 70.657 31.743C70.1267 31.9845 69.4875 32.1053 68.7393 32.1053ZM83.0504 28.2274C82.0466 28.2274 81.1802 28.0475 80.451 27.6876C79.7218 27.3278 79.1607 26.8401 78.7678 26.2246C78.3795 25.6043 78.1854 24.913 78.1854 24.1507C78.1854 23.5825 78.299 23.0783 78.5263 22.6379C78.7536 22.1976 79.0708 21.7928 79.478 21.4234C79.8852 21.0494 80.3587 20.6777 80.8984 20.3084L83.718 18.4547C84.0826 18.2227 84.3501 17.9788 84.5206 17.7231C84.6911 17.4627 84.7763 17.181 84.7763 16.878C84.7763 16.5892 84.6603 16.3216 84.4283 16.0754C84.1963 15.8292 83.8672 15.7085 83.4411 15.7132C83.157 15.7132 82.9107 15.7771 82.7024 15.905C82.4941 16.0281 82.3307 16.1914 82.2124 16.395C82.0987 16.5939 82.0419 16.8164 82.0419 17.0626C82.0419 17.3657 82.1271 17.6734 82.2976 17.9859C82.468 18.2984 82.6953 18.6299 82.9794 18.9803C83.2635 19.3259 83.5736 19.6999 83.9098 20.1024L90.8061 28.0143H87.6527L81.8999 21.6081C81.5211 21.1772 81.1423 20.7274 80.7635 20.2587C80.3894 19.7852 80.0769 19.2833 79.826 18.753C79.575 18.2179 79.4496 17.6379 79.4496 17.0129C79.4496 16.3074 79.6129 15.673 79.9396 15.1095C80.2711 14.5461 80.7351 14.101 81.3317 13.7743C81.9283 13.4428 82.6243 13.2771 83.4197 13.2771C84.1963 13.2771 84.8662 13.4357 85.4297 13.753C85.9979 14.0655 86.4335 14.4821 86.7365 15.003C87.0443 15.5191 87.1982 16.0873 87.1982 16.7075C87.1982 17.3941 87.0277 18.0167 86.6868 18.5754C86.3506 19.1294 85.8771 19.6266 85.2663 20.0669L82.2976 22.2047C81.8951 22.4982 81.5968 22.7989 81.4027 23.1067C81.2133 23.4097 81.1186 23.7009 81.1186 23.9803C81.1186 24.3259 81.2038 24.636 81.3743 24.9107C81.5447 25.1853 81.7862 25.4031 82.0987 25.5641C82.4112 25.7203 82.7782 25.7984 83.1996 25.7984C83.7109 25.7984 84.2152 25.6824 84.7124 25.4504C85.2143 25.2137 85.6688 24.8799 86.076 24.449C86.4879 24.0134 86.817 23.4973 87.0632 22.9007C87.3094 22.3041 87.4325 21.6436 87.4325 20.9192H89.9396C89.9396 21.8093 89.8426 22.6119 89.6484 23.3268C89.4543 24.0371 89.1844 24.6573 88.8388 25.1876C88.4931 25.7132 88.0978 26.1441 87.6527 26.4803C87.5107 26.5702 87.3733 26.6554 87.2408 26.7359C87.1082 26.8164 86.9709 26.9017 86.8288 26.9916C86.2891 27.4272 85.6854 27.7421 85.0178 27.9362C84.3549 28.1303 83.6991 28.2274 83.0504 28.2274ZM100.014 17.6521C99.9574 17.0792 99.7135 16.6341 99.2827 16.3169C98.8518 15.9997 98.267 15.841 97.5284 15.841C97.0265 15.841 96.6027 15.9121 96.2571 16.0541C95.9115 16.1914 95.6463 16.3832 95.4616 16.6294C95.2817 16.8756 95.1918 17.155 95.1918 17.4675C95.1823 17.7279 95.2367 17.9552 95.3551 18.1493C95.4782 18.3434 95.6463 18.5115 95.8594 18.6535C96.0724 18.7909 96.3187 18.9116 96.598 19.0158C96.8774 19.1152 97.1757 19.2004 97.4929 19.2714L98.7997 19.5839C99.4342 19.726 100.017 19.9154 100.547 20.1521C101.077 20.3889 101.536 20.6801 101.925 21.0257C102.313 21.3714 102.614 21.7785 102.827 22.2473C103.045 22.716 103.156 23.2535 103.161 23.8595C103.156 24.7497 102.929 25.5214 102.479 26.1749C102.034 26.8235 101.39 27.3278 100.547 27.6876C99.7088 28.0428 98.6979 28.2203 97.5142 28.2203C96.34 28.2203 95.3172 28.0404 94.446 27.6805C93.5795 27.3207 92.9025 26.788 92.4148 26.0825C91.9318 25.3723 91.6785 24.494 91.6548 23.4476H94.6307C94.6638 23.9353 94.8035 24.3425 95.0497 24.6692C95.3007 24.9911 95.6345 25.235 96.0511 25.4007C96.4725 25.5617 96.9484 25.6422 97.4787 25.6422C97.9995 25.6422 98.4517 25.5664 98.8352 25.4149C99.2235 25.2634 99.5241 25.0527 99.7372 24.7828C99.9503 24.5129 100.057 24.2028 100.057 23.8524C100.057 23.5257 99.9598 23.2511 99.7656 23.0285C99.5762 22.806 99.2969 22.6166 98.9276 22.4604C98.563 22.3041 98.1155 22.1621 97.5852 22.0342L96.0014 21.6365C94.7751 21.3382 93.8068 20.8718 93.0966 20.2374C92.3864 19.6029 92.0336 18.7482 92.0384 17.6734C92.0336 16.7928 92.268 16.0233 92.7415 15.3652C93.2197 14.7071 93.8755 14.1933 94.7088 13.824C95.5421 13.4547 96.4891 13.27 97.5497 13.27C98.6293 13.27 99.5715 13.4547 100.376 13.824C101.186 14.1933 101.816 14.7071 102.266 15.3652C102.715 16.0233 102.947 16.7856 102.962 17.6521H100.014ZM110.144 28.2274C109.022 28.2274 108.056 28.0001 107.246 27.5456C106.441 27.0863 105.821 26.4376 105.385 25.5996C104.95 24.7568 104.732 23.7601 104.732 22.6095C104.732 21.4874 104.95 20.5025 105.385 19.655C105.821 18.8074 106.434 18.1469 107.225 17.6734C108.02 17.1999 108.953 16.9632 110.023 16.9632C110.743 16.9632 111.413 17.0792 112.033 17.3112C112.658 17.5385 113.203 17.8818 113.667 18.341C114.135 18.8003 114.5 19.378 114.76 20.074C115.021 20.7653 115.151 21.5749 115.151 22.503V23.3339H105.939V21.4589H112.303C112.303 21.0233 112.208 20.6374 112.019 20.3013C111.829 19.9651 111.567 19.7023 111.23 19.5129C110.899 19.3188 110.513 19.2217 110.073 19.2217C109.614 19.2217 109.206 19.3283 108.851 19.5413C108.501 19.7497 108.226 20.0314 108.027 20.3865C107.828 20.7369 107.727 21.1275 107.722 21.5584V23.341C107.722 23.8808 107.821 24.3472 108.02 24.7402C108.224 25.1332 108.51 25.4362 108.88 25.6493C109.249 25.8624 109.687 25.9689 110.194 25.9689C110.53 25.9689 110.837 25.9215 111.117 25.8268C111.396 25.7321 111.635 25.5901 111.834 25.4007C112.033 25.2113 112.185 24.9793 112.289 24.7047L115.087 24.8893C114.945 25.5617 114.654 26.1488 114.213 26.6507C113.778 27.1479 113.214 27.5361 112.523 27.8155C111.837 28.0901 111.043 28.2274 110.144 28.2274ZM120.151 13.4689V28.0143H117.125V13.4689H120.151ZM125.6 13.4689V28.0143H122.575V13.4689H125.6Z" fill="white"/>
</svg>
