<svg width="118" height="28" viewBox="0 0 118 28" fill="none" xmlns="http://www.w3.org/2000/svg">
<g clip-path="url(#clip0_28_488)">
<path d="M20.2263 14.1201C19.3918 15.4755 17.9605 16.3963 16.3137 16.4992C16.4353 16.8938 16.5016 17.3113 16.5016 17.7459V21.8522C16.5016 22.7043 15.8274 23.3906 15.0039 23.3906H4.49842V16.3105C2.06132 15.67 0.221053 13.4853 0.0221053 10.8317C0.0110526 10.9118 0 10.9861 0 11.0719V26.0727C0.0552632 27.125 0.873158 27.9657 1.89553 28.0172H2.00053H14.9984H15.1532C18.3971 27.9314 21 25.2035 21 21.8522V17.7459C21 16.4477 20.7182 15.2239 20.2263 14.1201Z" fill="#003594"/>
<path d="M14.9984 2.43336e-05H0V7.86359C0.0165789 8.51555 0.138158 9.14463 0.337105 9.72797C0.353684 9.77372 0.370263 9.81947 0.386842 9.86522C1.06658 11.7296 2.59737 13.1593 4.49842 13.6626C4.92947 13.777 5.37711 13.8513 5.84132 13.8628H5.99605H13.7992H16.2529C17.43 13.7941 18.4966 13.3138 19.32 12.5531C19.3476 12.5245 19.3808 12.4959 19.4084 12.4731C20.3258 11.5923 20.9226 10.3628 20.9889 8.99022V8.77862L20.9945 8.72143V6.15362C20.9945 2.75084 18.3087 -0.0114136 14.9929 -0.0114136L14.9984 2.43336e-05ZM16.5016 8.73287C16.5016 9.01882 16.275 9.24757 16.0042 9.24757H6.00158C5.71421 9.24757 5.45447 9.16179 5.2279 9.01882C5.13395 8.96163 5.04553 8.893 4.96816 8.81865C4.68632 8.53842 4.50395 8.14382 4.50395 7.70917V4.62666H15.0039C15.8329 4.62666 16.5016 5.31865 16.5016 6.16506V8.73287Z" fill="#FE6B00"/>
</g>
<path d="M32.2642 21V6.45455H38.0881C39.1581 6.45455 40.0507 6.61316 40.7656 6.9304C41.4806 7.24763 42.018 7.68797 42.3778 8.25142C42.7377 8.81013 42.9176 9.45407 42.9176 10.1832C42.9176 10.7514 42.804 11.2509 42.5767 11.6818C42.3494 12.108 42.0369 12.4583 41.6392 12.733C41.2462 13.0028 40.7964 13.1946 40.2898 13.3082V13.4503C40.8438 13.474 41.3622 13.6302 41.8452 13.919C42.3329 14.2079 42.7282 14.6127 43.0312 15.1335C43.3343 15.6496 43.4858 16.2652 43.4858 16.9801C43.4858 17.7519 43.294 18.4408 42.9105 19.0469C42.5317 19.6482 41.9706 20.1241 41.2273 20.4744C40.4839 20.8248 39.5677 21 38.4787 21H32.2642ZM35.3395 18.4858H37.8466C38.7036 18.4858 39.3286 18.3224 39.7216 17.9957C40.1146 17.6643 40.3111 17.224 40.3111 16.6747C40.3111 16.2723 40.214 15.9171 40.0199 15.6094C39.8258 15.3016 39.5488 15.0601 39.1889 14.8849C38.8338 14.7098 38.41 14.6222 37.9176 14.6222H35.3395V18.4858ZM35.3395 12.5412H37.6193C38.0407 12.5412 38.4148 12.4678 38.7415 12.321C39.0729 12.1695 39.3333 11.9564 39.5227 11.6818C39.7169 11.4072 39.8139 11.0781 39.8139 10.6946C39.8139 10.169 39.6269 9.74527 39.2528 9.4233C38.8835 9.10133 38.358 8.94034 37.6761 8.94034H35.3395V12.5412ZM52.4258 16.3551V10.0909H55.4513V21H52.5465V19.0185H52.4329C52.1867 19.6577 51.7771 20.1714 51.2042 20.5597C50.636 20.9479 49.9424 21.142 49.1232 21.142C48.3941 21.142 47.7525 20.9763 47.1985 20.6449C46.6445 20.3134 46.2113 19.8423 45.8988 19.2315C45.591 18.6207 45.4348 17.8892 45.43 17.0369V10.0909H48.4556V16.4972C48.4603 17.1411 48.6332 17.6501 48.9741 18.0241C49.315 18.3982 49.7719 18.5852 50.3448 18.5852C50.7094 18.5852 51.0503 18.5024 51.3675 18.3366C51.6848 18.1662 51.9405 17.9152 52.1346 17.5838C52.3335 17.2524 52.4305 16.8428 52.4258 16.3551ZM59.7393 25.0909C59.3558 25.0909 58.996 25.0601 58.6598 24.9986C58.3284 24.9418 58.0537 24.8684 57.8359 24.7784L58.5178 22.5199C58.8729 22.6288 59.1925 22.688 59.4766 22.6974C59.7654 22.7069 60.014 22.6406 60.2223 22.4986C60.4354 22.3565 60.6082 22.1151 60.7408 21.7741L60.9183 21.3125L57.005 10.0909H60.1868L62.4453 18.1023H62.5589L64.8388 10.0909H68.0419L63.8018 22.179C63.5982 22.7661 63.3213 23.2775 62.9709 23.7131C62.6252 24.1534 62.1873 24.492 61.657 24.7287C61.1267 24.9702 60.4875 25.0909 59.7393 25.0909ZM74.0504 21.2131C73.0466 21.2131 72.1802 21.0331 71.451 20.6733C70.7218 20.3134 70.1607 19.8258 69.7678 19.2102C69.3795 18.59 69.1854 17.8987 69.1854 17.1364C69.1854 16.5682 69.299 16.0639 69.5263 15.6236C69.7536 15.1832 70.0708 14.7784 70.478 14.4091C70.8852 14.035 71.3587 13.6634 71.8984 13.294L74.718 11.4403C75.0826 11.2083 75.3501 10.9645 75.5206 10.7088C75.6911 10.4484 75.7763 10.1667 75.7763 9.86364C75.7763 9.57481 75.6603 9.30729 75.4283 9.06108C75.1963 8.81487 74.8672 8.69413 74.4411 8.69886C74.157 8.69886 73.9107 8.76278 73.7024 8.89062C73.4941 9.01373 73.3307 9.17708 73.2124 9.38068C73.0987 9.57955 73.0419 9.80208 73.0419 10.0483C73.0419 10.3513 73.1271 10.6591 73.2976 10.9716C73.468 11.2841 73.6953 11.6155 73.9794 11.9659C74.2635 12.3116 74.5736 12.6856 74.9098 13.0881L81.8061 21H78.6527L72.8999 14.5938C72.5211 14.1629 72.1423 13.7131 71.7635 13.2443C71.3894 12.7708 71.0769 12.2689 70.826 11.7386C70.575 11.2036 70.4496 10.6236 70.4496 9.99858C70.4496 9.29309 70.6129 8.65862 70.9396 8.09517C71.2711 7.53172 71.7351 7.08665 72.3317 6.75994C72.9283 6.4285 73.6243 6.26278 74.4197 6.26278C75.1963 6.26278 75.8662 6.4214 76.4297 6.73864C76.9979 7.05114 77.4335 7.4678 77.7365 7.98864C78.0443 8.50473 78.1982 9.07292 78.1982 9.69318C78.1982 10.3797 78.0277 11.0024 77.6868 11.5611C77.3506 12.1151 76.8771 12.6122 76.2663 13.0526L73.2976 15.1903C72.8951 15.4839 72.5968 15.7846 72.4027 16.0923C72.2133 16.3954 72.1186 16.6866 72.1186 16.9659C72.1186 17.3116 72.2038 17.6217 72.3743 17.8963C72.5447 18.1709 72.7862 18.3887 73.0987 18.5497C73.4112 18.706 73.7782 18.7841 74.1996 18.7841C74.7109 18.7841 75.2152 18.6681 75.7124 18.4361C76.2143 18.1993 76.6688 17.8655 77.076 17.4347C77.4879 16.9991 77.817 16.483 78.0632 15.8864C78.3094 15.2898 78.4325 14.6293 78.4325 13.9048H80.9396C80.9396 14.795 80.8426 15.5975 80.6484 16.3125C80.4543 17.0227 80.1844 17.643 79.8388 18.1733C79.4931 18.6989 79.0978 19.1297 78.6527 19.4659C78.5107 19.5559 78.3733 19.6411 78.2408 19.7216C78.1082 19.8021 77.9709 19.8873 77.8288 19.9773C77.2891 20.4129 76.6854 20.7277 76.0178 20.9219C75.3549 21.116 74.6991 21.2131 74.0504 21.2131ZM91.0142 10.6378C90.9574 10.0649 90.7135 9.61979 90.2827 9.30256C89.8518 8.98532 89.267 8.8267 88.5284 8.8267C88.0265 8.8267 87.6027 8.89773 87.2571 9.03977C86.9115 9.17708 86.6463 9.36884 86.4616 9.61506C86.2817 9.86127 86.1918 10.1406 86.1918 10.4531C86.1823 10.7135 86.2367 10.9408 86.3551 11.1349C86.4782 11.3291 86.6463 11.4972 86.8594 11.6392C87.0724 11.7765 87.3187 11.8973 87.598 12.0014C87.8774 12.1009 88.1757 12.1861 88.4929 12.2571L89.7997 12.5696C90.4342 12.7116 91.0166 12.901 91.5469 13.1378C92.0772 13.3745 92.5365 13.6657 92.9247 14.0114C93.313 14.357 93.6136 14.7642 93.8267 15.233C94.0445 15.7017 94.1558 16.2391 94.1605 16.8452C94.1558 17.7353 93.9285 18.5071 93.4787 19.1605C93.0336 19.8092 92.3897 20.3134 91.5469 20.6733C90.7088 21.0284 89.6979 21.206 88.5142 21.206C87.34 21.206 86.3172 21.026 85.446 20.6662C84.5795 20.3063 83.9025 19.7737 83.4148 19.0682C82.9318 18.358 82.6785 17.4796 82.6548 16.4332H85.6307C85.6638 16.9209 85.8035 17.3281 86.0497 17.6548C86.3007 17.9768 86.6345 18.2206 87.0511 18.3864C87.4725 18.5473 87.9484 18.6278 88.4787 18.6278C88.9995 18.6278 89.4517 18.5521 89.8352 18.4006C90.2235 18.2491 90.5241 18.0384 90.7372 17.7685C90.9503 17.4986 91.0568 17.1884 91.0568 16.8381C91.0568 16.5114 90.9598 16.2367 90.7656 16.0142C90.5762 15.7917 90.2969 15.6023 89.9276 15.446C89.563 15.2898 89.1155 15.1477 88.5852 15.0199L87.0014 14.6222C85.7751 14.3239 84.8068 13.8575 84.0966 13.223C83.3864 12.5885 83.0336 11.7339 83.0384 10.6591C83.0336 9.77841 83.268 9.009 83.7415 8.35085C84.2197 7.69271 84.8755 7.17898 85.7088 6.80966C86.5421 6.44034 87.4891 6.25568 88.5497 6.25568C89.6293 6.25568 90.5715 6.44034 91.3764 6.80966C92.1861 7.17898 92.8158 7.69271 93.2656 8.35085C93.7154 9.009 93.9474 9.77131 93.9616 10.6378H91.0142ZM101.144 21.2131C100.022 21.2131 99.0558 20.9858 98.2461 20.5312C97.4412 20.072 96.8209 19.4233 96.3853 18.5852C95.9497 17.7424 95.7319 16.7457 95.7319 15.5952C95.7319 14.473 95.9497 13.4882 96.3853 12.6406C96.8209 11.7931 97.4341 11.1326 98.2248 10.6591C99.0202 10.1856 99.953 9.94886 101.023 9.94886C101.743 9.94886 102.413 10.0649 103.033 10.2969C103.658 10.5241 104.203 10.8674 104.667 11.3267C105.135 11.786 105.5 12.3636 105.76 13.0597C106.021 13.7509 106.151 14.5606 106.151 15.4886V16.3196H96.9393V14.4446H103.303C103.303 14.009 103.208 13.6231 103.019 13.2869C102.829 12.9508 102.567 12.688 102.23 12.4986C101.899 12.3045 101.513 12.2074 101.073 12.2074C100.614 12.2074 100.206 12.3139 99.8512 12.527C99.5008 12.7353 99.2262 13.017 99.0273 13.3722C98.8285 13.7225 98.7267 14.1132 98.7219 14.544V16.3267C98.7219 16.8665 98.8214 17.3329 99.0202 17.7259C99.2238 18.1188 99.5103 18.4219 99.8796 18.6349C100.249 18.848 100.687 18.9545 101.194 18.9545C101.53 18.9545 101.837 18.9072 102.117 18.8125C102.396 18.7178 102.635 18.5758 102.834 18.3864C103.033 18.197 103.185 17.965 103.289 17.6903L106.087 17.875C105.945 18.5473 105.654 19.1345 105.213 19.6364C104.778 20.1335 104.214 20.5218 103.523 20.8011C102.837 21.0758 102.043 21.2131 101.144 21.2131ZM111.151 6.45455V21H108.125V6.45455H111.151ZM116.6 6.45455V21H113.575V6.45455H116.6Z" fill="#003594"/>
<defs>
<clipPath id="clip0_28_488">
<rect width="21" height="28" fill="white"/>
</clipPath>
</defs>
</svg>
